#!OML:ASF H:\Punching\Project 1\Capture day 1\Session 1\female.ASF
:FULLY-SPECIFIED
:DEGREES
2491
root -1.35938 15.6939 7.74372 -168.462 -1.00987 -185.086
lowerback -4.74205 -1.22595 -4.14672
upperback -5.93869 -2.04787 -0.326931
thorax -3.36508 -1.08157 1.95811
lowerneck -14.9588 1.53933 10.5436
upperneck 35.3366 4.31317 -4.9802
head 15.1497 3.76477 -2.89379
rclavicle 2.34566e-014 1.39149e-014
rhumerus -38.943 -11.8589 -69.1309
rradius 26.4153
rwrist 12.1892
rhand -10.5019 -5.53905
rfingers 7.12502
rthumb 15.5003 -34.9377
lclavicle 2.34566e-014 1.39149e-014
lhumerus -35.0953 0.903128 76.1035
lradius 41.1281
lwrist -16.9837
lhand -5.92698 14.7542
lfingers 7.12502
lthumb 19.9026 43.7551
rfemur -40.6057 -1.92169 20.1451
rtibia 29.0951
rfoot -16.0208 -24.3693
rtoes 2.96478
lfemur 0.834649 -4.23582 -31.5672
ltibia 3.33958e-014
lfoot -9.46059 13.498
ltoes 4.28617
2492
root -1.35566 15.6866 7.64849 -168.576 -0.943225 -185.209
lowerback -4.73621 -1.26775 -4.17856
upperback -5.94043 -2.1042 -0.327804
thorax -3.36594 -1.1088 1.97397
lowerneck -14.9694 1.56618 10.5638
upperneck 35.3465 4.3584 -5.02707
head 15.1637 3.77898 -2.90985
rclavicle -1.13059e-014 1.11319e-014
rhumerus -39.0415 -12.2684 -68.7824
rradius 26.0665
rwrist 12.6601
rhand -10.6115 -5.29342
rfingers 7.12502
rthumb 15.3947 -34.7002
lclavicle -1.13059e-014 1.11319e-014
lhumerus -34.9567 0.751743 76.4661
lradius 41.3637
lwrist -16.8809
lhand -5.97149 14.7543
lfingers 7.12502
lthumb 19.8598 43.7597
rfemur -40.7461 -2.38808 20.4245
rtibia 28.9054
rfoot -15.7062 -25.3562
rtoes 4.5442
lfemur 1.36121 -4.21913 -31.7182
ltibia 1.59028e-015
lfoot -9.767 13.5939
ltoes 4.04384
2493
root -1.35152 15.6783 7.55198 -168.691 -0.858796 -185.328
lowerback -4.74243 -1.3092 -4.20359
upperback -5.94051 -2.15934 -0.322289
thorax -3.35825 -1.13575 1.99222
lowerneck -14.9841 1.59809 10.5787
upperneck 35.3584 4.41387 -5.07818
head 15.1809 3.79606 -2.92502
rclavicle 2.94201e-014 1.11319e-014
rhumerus -39.1224 -12.6781 -68.4342
rradius 25.7156
rwrist 13.1446
rhand -10.7371 -5.10088
rfingers 7.12502
rthumb 15.2737 -34.517
lclavicle 2.94201e-014 1.11319e-014
lhumerus -34.8436 0.630652 76.8435
lradius 41.5871
lwrist -16.7549
lhand -6.00803 14.8361
lfingers 7.12502
lthumb 19.8246 43.845
rfemur -40.8519 -2.86863 20.726
rtibia 28.8474
rfoot -15.4629 -26.3501
rtoes 6.22277
lfemur 1.89437 -4.18353 -31.8667
ltibia 1.59028e-015
lfoot -10.0712 13.6898
ltoes 3.76028
2494
root -1.34674 15.6685 7.45407 -168.803 -0.762034 -185.443
lowerback -4.76549 -1.35165 -4.22353
upperback -5.94351 -2.21567 -0.309551
thorax -3.34395 -1.16375 2.01456
lowerneck -14.9977 1.63412 10.5917
upperneck 35.373 4.48043 -5.13791
head 15.2006 3.8167 -2.9416
rclavicle 8.77137e-015 -1.31198e-014
rhumerus -39.1989 -13.0777 -68.0859
rradius 25.3806
rwrist 13.6341
rhand -10.8062 -5.03754
rfingers 7.12502
rthumb 15.2072 -34.4587
lclavicle 8.77137e-015 -1.31198e-014
lhumerus -34.762 0.548488 77.2311
lradius 41.791
lwrist -16.619
lhand -6.0447 14.9616
lfingers 7.12502
lthumb 19.7894 43.9741
rfemur -40.9286 -3.34972 21.0428
rtibia 28.9009
rfoot -15.2246 -27.3619
rtoes 7.78956
lfemur 2.42852 -4.13557 -32.0104
ltibia 4.77083e-015
lfoot -10.3622 13.78
ltoes 3.44481
